<?xml version="1.0" encoding="UTF-8"?>
<svg xmlns="http://www.w3.org/2000/svg" xmlns:xlink="http://www.w3.org/1999/xlink" viewBox="0 0 42 42" width="42px" height="42px">
<g id="surface1193164">
<path style=" stroke:none;fill-rule:nonzero;fill:rgb(14.901961%,18.82353%,25.098041%);fill-opacity:1;" d="M 21 4.199219 C 11.722656 4.199219 4.199219 11.722656 4.199219 21 C 4.199219 28.871094 9.621094 35.460938 16.929688 37.28125 C 16.851562 37.054688 16.800781 36.792969 16.800781 36.464844 L 16.800781 33.59375 C 16.117188 33.59375 14.976562 33.59375 14.6875 33.59375 C 13.539062 33.59375 12.515625 33.101562 12.023438 32.183594 C 11.472656 31.160156 11.375 29.601562 10.011719 28.644531 C 9.609375 28.328125 9.917969 27.964844 10.382812 28.015625 C 11.242188 28.257812 11.957031 28.847656 12.628906 29.726562 C 13.296875 30.601562 13.613281 30.800781 14.863281 30.800781 C 15.46875 30.800781 16.378906 30.765625 17.230469 30.632812 C 17.691406 29.464844 18.484375 28.390625 19.453125 27.886719 C 13.859375 27.308594 11.191406 24.527344 11.191406 20.746094 C 11.191406 19.121094 11.882812 17.546875 13.0625 16.222656 C 12.675781 14.90625 12.1875 12.222656 13.210938 11.199219 C 15.726562 11.199219 17.246094 12.832031 17.613281 13.273438 C 18.867188 12.84375 20.246094 12.601562 21.691406 12.601562 C 23.144531 12.601562 24.527344 12.84375 25.785156 13.277344 C 26.144531 12.839844 27.667969 11.199219 30.191406 11.199219 C 31.214844 12.222656 30.722656 14.917969 30.332031 16.230469 C 31.503906 17.554688 32.191406 19.125 32.191406 20.746094 C 32.191406 24.523438 29.527344 27.304688 23.941406 27.882812 C 25.480469 28.6875 26.601562 30.941406 26.601562 32.636719 L 26.601562 36.464844 C 26.601562 36.613281 26.566406 36.714844 26.550781 36.839844 C 33.097656 34.546875 37.800781 28.332031 37.800781 21 C 37.800781 11.722656 30.277344 4.199219 21 4.199219 Z M 21 4.199219 "/>
</g>
</svg>
